<svg width="10" height="18" viewBox="0 0 10 18" fill="none" xmlns="http://www.w3.org/2000/svg">
<path d="M9.73053 9.38716L1.88589 17.2315C1.77362 17.3436 1.64444 17.3999 1.49863 17.3999C1.35276 17.3999 1.22364 17.3436 1.11144 17.2315L0.269895 16.3897C0.157516 16.2775 0.101563 16.1486 0.101563 16.0025C0.101563 15.8564 0.157516 15.7275 0.269895 15.6153L6.8855 8.99973L0.269895 2.38399C0.157516 2.27179 0.101563 2.14267 0.101563 1.99698C0.101563 1.85093 0.157516 1.72181 0.269895 1.60961L1.1115 0.768179C1.2237 0.655859 1.35282 0.599905 1.49869 0.599905C1.6445 0.599905 1.77362 0.655977 1.88589 0.768179L9.73011 8.61253C9.84226 8.72468 9.89839 8.85386 9.89839 8.99973C9.89839 9.1456 9.84267 9.27472 9.73053 9.38716Z" fill="white"/>
</svg>
