<svg width="10" height="18" viewBox="0 0 10 18" fill="none" xmlns="http://www.w3.org/2000/svg">
<path d="M0.269464 9.38716L8.11411 17.2315C8.22637 17.3436 8.35556 17.3999 8.50137 17.3999C8.64723 17.3999 8.77636 17.3436 8.88856 17.2315L9.73011 16.3897C9.84248 16.2775 9.89844 16.1486 9.89844 16.0025C9.89844 15.8564 9.84248 15.7275 9.73011 15.6153L3.11449 8.99973L9.73011 2.38399C9.84248 2.27179 9.89844 2.14267 9.89844 1.99698C9.89844 1.85093 9.84248 1.72181 9.73011 1.60961L8.8885 0.768179C8.7763 0.655859 8.64718 0.599905 8.50131 0.599905C8.3555 0.599905 8.22637 0.655977 8.11411 0.768179L0.269878 8.61253C0.157735 8.72468 0.101604 8.85386 0.101604 8.99973C0.101604 9.1456 0.157321 9.27472 0.269464 9.38716Z" fill="white"/>
</svg>
